Coordinates
version=1
nRows=10
nColumns=63
inDegrees=yes

Units are S.I. units (second, meters, Newtons, ...)
If the header above contains a line with 'inDegrees', this indicates whether rotational values are in degrees (yes) or radians (no).

endheader
time	pelvis_tilt	pelvis_list	pelvis_rotation	pelvis_tx	pelvis_ty	pelvis_tz	hip_flexion_r	hip_adduction_r	hip_rotation_r	knee_angle_r	knee_angle_r_beta	ankle_angle_r	subtalar_angle_r	mtp_angle_r	hip_flexion_l	hip_adduction_l	hip_rotation_l	knee_angle_l	knee_angle_l_beta	ankle_angle_l	subtalar_angle_l	mtp_angle_l	L5_S1_Flex_Ext	L5_S1_Lat_Bending	L5_S1_axial_rotation	L4_L5_Flex_Ext	L4_L5_Lat_Bending	L4_L5_axial_rotation	L3_L4_Flex_Ext	L3_L4_Lat_Bending	L3_L4_axial_rotation	L2_L3_Flex_Ext	L2_L3_Lat_Bending	L2_L3_axial_rotation	L1_L2_Flex_Ext	L1_L2_Lat_Bending	L1_L2_axial_rotation	L1_T12_Flex_Ext	L1_T12_Lat_Bending	L1_T12_axial_rotation	Abs_r3	Abs_r2	Abs_r1	Abs_t1	Abs_t2	neck_flexion	neck_bending	neck_rotation	arm_flex_r	arm_add_r	arm_rot_r	elbow_flex_r	pro_sup_r	wrist_flex_r	wrist_dev_r	arm_flex_l	arm_add_l	arm_rot_l	elbow_flex_l	pro_sup_l	wrist_flex_l	wrist_dev_l
      3.51666667	      9.61420957	     -3.13537199	     82.07545819	      0.24037898	      0.86248523	      0.64594722	     10.01689867	      5.27790989	    -20.75750956	     14.78399648	      0.25802942	     24.09388749	      0.56153907	      0.00000000	      7.86842667	     -6.63964073	     27.74062918	     13.32969411	      0.23264705	     26.20749834	      3.08095623	      0.00000000	     -0.47412938	      1.83405188	      2.36255702	     -0.88050567	      2.43928900	      2.51021684	     -0.77894716	      4.45931375	      2.51021684	     -0.54188247	      4.45931375	      2.06723739	     -0.44027654	      3.73999860	      1.91957758	     -0.27091753	      2.84094637	      1.77191777	     -3.38665875	     20.74716170	     13.13983339	      0.00000000	      0.00000000	     21.55117821	    -15.30881758	      8.79769733	      8.20997817	    -20.54649843	    146.02814939	      3.18107679	      3.06419484	     -9.97651413	     -6.33422606	     25.51926727	      6.58167521	    162.06109572	      0.19528756	      2.47427879	    -46.39398072	    -17.51715762
      3.53333333	      9.43508413	     -3.16711297	     81.88006083	      0.24079238	      0.86260467	      0.64594311	     10.17173860	      4.98878387	    -22.23250781	     15.06703691	      0.26296940	     24.11071582	      0.67913689	      0.00000000	      7.84240217	     -6.45662415	     28.21281546	     13.22194792	      0.23076652	     26.04987102	      2.45360863	      0.00000000	     -0.47434804	      1.80495346	      2.38659356	     -0.88091175	      2.40058811	      2.53575566	     -0.77930640	      4.38856385	      2.53575566	     -0.54213238	      4.38856385	      2.08826937	     -0.44047959	      3.68066110	      1.93910727	     -0.27104247	      2.79587291	      1.78994517	     -3.38822065	     20.41799456	     13.27351742	      0.00000000	      0.00000000	     22.01459284	    -14.80205656	      9.11276306	      8.24233679	    -20.40560924	    145.84000649	      3.20573630	      3.08896244	     -9.85880261	     -6.31258244	     25.51654599	      6.47064788	    162.83687499	      0.19351058	      2.50853775	    -46.63038233	    -17.49393194
      3.55000000	      9.27122492	     -3.24026297	     81.75373249	      0.24107549	      0.86272834	      0.64600445	     10.39389478	      4.71266609	    -23.72559839	     15.40050585	      0.26878953	     23.88570424	      0.35367744	      0.00000000	      7.83797079	     -6.27702939	     28.99261244	     13.11516523	      0.22890282	     25.61144019	      1.73392080	      0.00000000	     -0.47771447	      1.78086492	      2.39847528	     -0.88716355	      2.36855035	      2.54837999	     -0.78483711	      4.32999497	      2.54837999	     -0.54597987	      4.32999497	      2.09866587	     -0.44360566	      3.63153975	      1.94876117	     -0.27296605	      2.75855976	      1.79885646	     -3.41226672	     20.14550017	     13.33959998	      0.00000000	      0.00000000	     22.56318910	    -14.29990752	      9.69778862	      8.29323810	    -20.28739665	    145.75865842	      3.19735116	      3.13144207	     -9.83943839	     -6.20993956	     25.53659472	      6.37703676	    163.32892923	      0.19317060	      2.53967595	    -46.85099026	    -17.77179173
      3.56666667	      9.17262185	     -3.42636553	     81.63498652	      0.24145694	      0.86274139	      0.64584815	     10.69102113	      4.53038370	    -25.18606511	     15.71309557	      0.27424525	     23.46370388	     -0.10935615	      0.00000000	      8.00913821	     -6.27844531	     28.72675443	     13.17204446	      0.22989555	     25.25325349	      2.81711458	      0.00000000	     -0.47272948	      1.76688843	      2.40127290	     -0.87790592	      2.34996161	      2.55135245	     -0.77664726	      4.29601252	      2.55135245	     -0.54028252	      4.29601252	      2.10111379	     -0.43897660	      3.60303888	      1.95103423	     -0.27011763	      2.73691017	      1.80095467	     -3.37665941	     19.98739525	     13.35515948	      0.00000000	      0.00000000	     23.33966278	    -13.82513666	     10.52125538	      8.32720422	    -20.20714264	    145.75266423	      3.17819287	      3.13656415	     -9.81356040	     -6.23690625	     25.52261394	      6.27879278	    164.55570672	      0.19251382	      2.52223087	    -47.58541886	    -17.54040123
      3.58333333	      9.17085233	     -3.72628596	     81.57907556	      0.24170679	      0.86286976	      0.64526924	     11.02799871	      4.55028555	    -26.13719098	     15.84939989	      0.27662421	     22.50951194	     -1.47298579	      0.00000000	      8.13604279	     -6.31362579	     29.67965611	     13.09475999	      0.22854668	     24.39141923	      2.44126959	      0.00000000	     -0.45705694	      1.77055222	      2.36260603	     -0.84880045	      2.35483445	      2.51026891	     -0.75089885	      4.30492066	      2.51026891	     -0.52237038	      4.30492066	      2.06728028	     -0.42442308	      3.61051008	      1.91961740	     -0.26116234	      2.74258538	      1.77195452	     -3.26471205	     20.02884079	     13.14010595	      0.00000000	      0.00000000	     24.34205434	    -13.39122875	     11.68841759	      8.37306067	    -20.19666928	    145.93633977	      3.12319792	      3.13844320	     -9.80585225	     -6.36842302	     25.34232318	      6.14332241	    164.75483945	      0.19617964	      2.64956581	    -47.89079962	    -18.05479750
      3.60000000	      9.20233776	     -4.17707602	     81.42591268	      0.24214125	      0.86294805	      0.64444009	     11.51380477	      4.69917215	    -26.53571831	     15.94003811	      0.27820615	     21.24512199	     -3.45773959	      0.00000000	      8.39361186	     -6.46398335	     30.17363857	     12.99253217	      0.22676246	     23.69186408	      2.63078677	      0.00000000	     -0.42406221	      1.78253543	      2.31809372	     -0.78752594	      2.37077212	      2.46297457	     -0.69669181	      4.33405665	      2.46297457	     -0.48466070	      4.33405665	      2.02833200	     -0.39378417	      3.63494625	      1.88345114	     -0.24230915	      2.76114738	      1.73857029	     -3.02903399	     20.16439731	     12.89254182	      0.00000000	      0.00000000	     25.58713843	    -12.92082187	     13.09437940	      8.40860654	    -20.21222889	    146.18119338	      3.05569003	      3.19180126	     -9.89252078	     -6.61543779	     25.04666480	      5.96148303	    165.73033104	      0.19831890	      2.71341392	    -48.68103866	    -17.95948268
      3.61666667	      9.27134300	     -4.67072195	     81.24236723	      0.24254371	      0.86305208	      0.64334921	     11.98051696	      4.95462994	    -26.49031982	     15.89743839	      0.27746264	     19.87776229	     -5.68959111	      0.00000000	      8.64113018	     -6.70307875	     30.34740512	     12.73227457	      0.22222011	     23.23432484	      3.05936766	      0.00000000	     -0.37876213	      1.80146316	      2.25936766	     -0.70339915	      2.39594600	      2.40057814	     -0.62226830	      4.38007752	      2.40057814	     -0.43288724	      4.38007752	      1.97694670	     -0.35171851	      3.67354367	      1.83573622	     -0.21642468	      2.79046643	      1.69452574	     -2.70546000	     20.37851151	     12.56592510	      0.00000000	      0.00000000	     26.84294942	    -12.36324433	     14.51040031	      8.43500537	    -20.25248634	    146.65617175	      3.01453352	      3.15655147	    -10.06158022	     -6.93753233	     24.64015888	      5.78441052	    166.54061916	      0.20103392	      2.79709270	    -49.31538179	    -17.75289017
      3.63333333	      9.26272902	     -5.13405502	     81.06947062	      0.24269148	      0.86309071	      0.64160958	     12.33776145	      4.98277903	    -26.96672505	     15.88675898	      0.27727625	     19.33109173	     -6.03614601	      0.00000000	      8.67797161	     -6.70266932	     32.18658084	     12.25958734	      0.21397016	     22.64764035	      0.66507018	      0.00000000	     -0.31185939	      1.81635511	      2.17172661	     -0.57915408	      2.41575229	      2.30745952	     -0.51235380	      4.41628581	      2.30745952	     -0.35642410	      4.41628581	      1.90026078	     -0.28959263	      3.70391133	      1.76452787	     -0.17819646	      2.81353406	      1.62879495	     -2.22758047	     20.54697224	     12.07849187	      0.00000000	      0.00000000	     27.60182612	    -11.36504227	     16.13727950	      8.41355898	    -20.30947998	    146.40056952	      3.18394563	      3.23763289	    -10.28539083	     -7.36118311	     24.01229532	      5.56807564	    166.76306721	      0.20375446	      2.89942181	    -49.90253576	    -17.93016841
      3.65000000	      9.26325419	     -5.54498501	     80.96285469	      0.24279259	      0.86300684	      0.63980445	     12.54990540	      5.06339925	    -26.95786903	     15.65612253	      0.27325089	     19.39214034	     -5.63996314	      0.00000000	      8.76704237	     -6.78461657	     32.91628380	     11.78421975	      0.20567343	     22.66270165	     -0.53565202	      0.00000000	     -0.23271096	      1.83134007	      2.06825910	     -0.43216753	      2.43568230	      2.19752529	     -0.38232084	      4.45272025	      2.19752529	     -0.26596536	      4.45272025	      1.80972671	     -0.21609540	      3.73446868	      1.68046052	     -0.13297104	      2.83674577	      1.55119432	     -1.66223114	     20.71648517	     11.50303664	      0.00000000	      0.00000000	     27.96044403	    -10.26358041	     17.63352288	      8.35439260	    -20.32419821	    146.71312495	      3.29701486	      3.28162434	    -10.53995228	     -7.63851960	     23.32610944	      5.36669249	    166.86403172	      0.20374934	      2.87626939	    -50.34781083	    -18.11697012
      3.66666667	      9.26875041	     -5.78887290	     80.70434816	      0.24318739	      0.86302982	      0.63824783	     12.56605468	      5.39372906	    -24.87972221	     15.13467492	      0.26414991	     19.38721100	     -6.49416155	      0.00000000	      8.66360467	     -6.90317109	     33.14219003	     11.22707422	      0.19594941	     22.95446238	     -1.77952379	      0.00000000	     -0.17383685	      1.84204027	      2.01720681	     -0.32283242	      2.44991355	      2.14328223	     -0.28559657	      4.47873670	      2.14328223	     -0.19867814	      4.47873670	      1.76505595	     -0.16142490	      3.75628851	      1.63898053	     -0.09933038	      2.85332037	      1.51290510	     -1.24169926	     20.83752790	     11.21909909	      0.00000000	      0.00000000	     28.12860128	     -9.15104069	     18.88043585	      8.27875458	    -20.30178670	    146.98394942	      3.43223729	      3.23095420	    -10.79927383	     -7.77730053	     22.72065646	      5.22961840	    166.80336121	      0.20060963	      2.83617945	    -50.48504490	    -18.43212237
